<svg width="20" height="20" viewBox="0 0 20 20" fill="none" xmlns="http://www.w3.org/2000/svg">
<path fill-rule="evenodd" clip-rule="evenodd" d="M16.7542 15.9258C16.7305 16.3512 16.5449 16.7514 16.2354 17.0441C15.9259 17.3369 15.516 17.5 15.09 17.5H4.90999C4.48396 17.5 4.0741 17.3369 3.7646 17.0441C3.45511 16.7514 3.26947 16.3512 3.24582 15.9258L2.59791 4.25917C2.58533 4.03289 2.61903 3.80642 2.69696 3.5936C2.77488 3.38079 2.89539 3.18611 3.05111 3.02145C3.20683 2.8568 3.3945 2.72563 3.60264 2.63597C3.81079 2.54631 4.03503 2.50005 4.26166 2.5H15.7383C15.965 2.49999 16.1893 2.54622 16.3975 2.63585C16.6057 2.72548 16.7934 2.85664 16.9491 3.0213C17.1049 3.18596 17.2255 3.38067 17.3034 3.59351C17.3814 3.80635 17.4151 4.03285 17.4025 4.25917L16.7542 15.9258ZM14.2683 7.40792C14.61 7.18292 14.6958 6.73667 14.4154 6.44625C13.9398 5.95542 13.3839 5.54932 12.7717 5.24542C11.9216 4.82379 10.9879 4.59785 10.0392 4.58417C9.08952 4.56843 8.14838 4.76517 7.28457 5.16C6.66179 5.44456 6.09187 5.83286 5.59916 6.30833C5.30874 6.59 5.37832 7.03833 5.71207 7.27417L7.50874 8.54333C7.84207 8.77917 8.31207 8.70292 8.65749 8.48292C8.7466 8.42639 8.83945 8.376 8.93541 8.33208C9.24209 8.1918 9.57484 8.11756 9.91207 8.11417L11.3258 6.48875C11.3983 6.40532 11.501 6.3541 11.6112 6.34636C11.6658 6.34253 11.7206 6.34949 11.7725 6.36685C11.8245 6.3842 11.8724 6.41161 11.9137 6.4475C11.9551 6.48339 11.9889 6.52707 12.0133 6.57605C12.0377 6.62502 12.0523 6.67832 12.0561 6.73291C12.06 6.78751 12.053 6.84232 12.0356 6.89422C12.0183 6.94613 11.9909 6.9941 11.955 7.03542L10.8583 8.29583C11.0069 8.3573 11.1487 8.43381 11.2817 8.52417C11.6192 8.75458 12.0858 8.845 12.4275 8.62L14.2679 7.4075L14.2683 7.40792Z" fill="#4B4B4B"/>
</svg>
