<svg width="48" height="48" viewBox="0 0 48 48" fill="none" xmlns="http://www.w3.org/2000/svg">
<path d="M22.4 16.75L29.4 4.75C32.4334 5.55 35.1254 7.01667 37.476 9.15C39.8267 11.2833 41.5347 13.8167 42.6 16.75H22.4ZM16.85 21.75L10 9.75C11.8 7.98333 13.892 6.58333 16.276 5.55C18.66 4.51667 21.2347 4 24 4C24.4334 4 24.9334 4.02533 25.5 4.076C26.0667 4.12667 26.5834 4.18467 27.05 4.25L16.85 21.75ZM4.65002 29C4.45002 28.2 4.29136 27.3833 4.17402 26.55C4.05669 25.7167 3.99869 24.8667 4.00002 24C4.00002 21.6333 4.38336 19.4 5.15002 17.3C5.91669 15.2 7.00002 13.2833 8.40002 11.55L18.5 29H4.65002ZM18.65 43.25C15.6167 42.45 12.9167 40.9833 10.55 38.85C8.18336 36.7167 6.46669 34.1833 5.40002 31.25H25.55L18.65 43.25ZM24 44C23.5 44 22.9914 43.9667 22.474 43.9C21.9567 43.8333 21.4654 43.7667 21 43.7L31.15 26.25L38 38.25C36.2 40.0167 34.108 41.4167 31.724 42.45C29.34 43.4833 26.7654 44 24 44ZM39.6 36.45L29.5 19H43.35C43.55 19.8 43.7087 20.6167 43.826 21.45C43.9434 22.2833 44.0014 23.1333 44 24C44 26.3333 43.5914 28.5667 42.774 30.7C41.9567 32.8333 40.8987 34.75 39.6 36.45Z" fill="black"/>
</svg>
