<svg width="12" height="12" viewBox="0 0 12 12" fill="none" xmlns="http://www.w3.org/2000/svg">
<g clip-path="url(#clip0_366_170)">
<path d="M12 10.6667C12 11.0203 11.8595 11.3594 11.6095 11.6095C11.3594 11.8595 11.0203 12 10.6667 12H1.33333C0.979711 12 0.640573 11.8595 0.390524 11.6095C0.140476 11.3594 0 11.0203 0 10.6667V1.33333C0 0.979711 0.140476 0.640573 0.390524 0.390524C0.640573 0.140476 0.979711 0 1.33333 0L10.6667 0C11.0203 0 11.3594 0.140476 11.6095 0.390524C11.8595 0.640573 12 0.979711 12 1.33333V10.6667Z" fill="#EA596E"/>
<path d="M5.99999 7.49998C4.43766 7.49998 3.16666 6.22898 3.16666 4.66665C3.16666 3.10431 4.43766 1.83331 5.99999 1.83331C7.56232 1.83331 8.83332 3.10431 8.83332 4.66665C8.83332 6.22898 7.56232 7.49998 5.99999 7.49998ZM5.99999 2.83331C4.98899 2.83331 4.16666 3.65598 4.16666 4.66665C4.16666 5.67731 4.98899 6.49998 5.99999 6.49998C7.01099 6.49998 7.83332 5.67731 7.83332 4.66665C7.83332 3.65598 7.01099 2.83331 5.99999 2.83331Z" fill="white"/>
<path d="M6 10.5C5.86739 10.5 5.74022 10.4473 5.64645 10.3536C5.55268 10.2598 5.5 10.1326 5.5 10V7C5.5 6.86739 5.55268 6.74022 5.64645 6.64645C5.74022 6.55268 5.86739 6.5 6 6.5C6.13261 6.5 6.25978 6.55268 6.35355 6.64645C6.44732 6.74022 6.5 6.86739 6.5 7V10C6.5 10.1326 6.44732 10.2598 6.35355 10.3536C6.25978 10.4473 6.13261 10.5 6 10.5Z" fill="white"/>
<path d="M7.625 9.16669H4.375C4.24239 9.16669 4.11521 9.11401 4.02145 9.02024C3.92768 8.92647 3.875 8.7993 3.875 8.66669C3.875 8.53408 3.92768 8.4069 4.02145 8.31313C4.11521 8.21937 4.24239 8.16669 4.375 8.16669H7.625C7.75761 8.16669 7.88479 8.21937 7.97855 8.31313C8.07232 8.4069 8.125 8.53408 8.125 8.66669C8.125 8.7993 8.07232 8.92647 7.97855 9.02024C7.88479 9.11401 7.75761 9.16669 7.625 9.16669Z" fill="white"/>
</g>
<defs>
<clipPath id="clip0_366_170">
<rect width="12" height="12" fill="white"/>
</clipPath>
</defs>
</svg>
