<svg width="25" height="25" viewBox="0 0 25 25" fill="none" xmlns="http://www.w3.org/2000/svg">
<g clip-path="url(#clip0_240_98)">
<path d="M19.4062 3.125H15.5C15.5 1.40137 14.0986 0 12.375 0C10.6514 0 9.25 1.40137 9.25 3.125H5.34375C4.0498 3.125 3 4.1748 3 5.46875V22.6562C3 23.9502 4.0498 25 5.34375 25H19.4062C20.7002 25 21.75 23.9502 21.75 22.6562V5.46875C21.75 4.1748 20.7002 3.125 19.4062 3.125ZM7.6875 20.7031C7.03809 20.7031 6.51562 20.1807 6.51562 19.5312C6.51562 18.8818 7.03809 18.3594 7.6875 18.3594C8.33691 18.3594 8.85938 18.8818 8.85938 19.5312C8.85938 20.1807 8.33691 20.7031 7.6875 20.7031ZM7.6875 16.0156C7.03809 16.0156 6.51562 15.4932 6.51562 14.8438C6.51562 14.1943 7.03809 13.6719 7.6875 13.6719C8.33691 13.6719 8.85938 14.1943 8.85938 14.8438C8.85938 15.4932 8.33691 16.0156 7.6875 16.0156ZM7.6875 11.3281C7.03809 11.3281 6.51562 10.8057 6.51562 10.1562C6.51562 9.50684 7.03809 8.98438 7.6875 8.98438C8.33691 8.98438 8.85938 9.50684 8.85938 10.1562C8.85938 10.8057 8.33691 11.3281 7.6875 11.3281ZM12.375 1.95312C13.0244 1.95312 13.5469 2.47559 13.5469 3.125C13.5469 3.77441 13.0244 4.29688 12.375 4.29688C11.7256 4.29688 11.2031 3.77441 11.2031 3.125C11.2031 2.47559 11.7256 1.95312 12.375 1.95312ZM18.625 19.9219C18.625 20.1367 18.4492 20.3125 18.2344 20.3125H11.2031C10.9883 20.3125 10.8125 20.1367 10.8125 19.9219V19.1406C10.8125 18.9258 10.9883 18.75 11.2031 18.75H18.2344C18.4492 18.75 18.625 18.9258 18.625 19.1406V19.9219ZM18.625 15.2344C18.625 15.4492 18.4492 15.625 18.2344 15.625H11.2031C10.9883 15.625 10.8125 15.4492 10.8125 15.2344V14.4531C10.8125 14.2383 10.9883 14.0625 11.2031 14.0625H18.2344C18.4492 14.0625 18.625 14.2383 18.625 14.4531V15.2344ZM18.625 10.5469C18.625 10.7617 18.4492 10.9375 18.2344 10.9375H11.2031C10.9883 10.9375 10.8125 10.7617 10.8125 10.5469V9.76562C10.8125 9.55078 10.9883 9.375 11.2031 9.375H18.2344C18.4492 9.375 18.625 9.55078 18.625 9.76562V10.5469Z" fill="black"/>
</g>
<defs>
<clipPath id="clip0_240_98">
<rect width="25" height="25" fill="white"/>
</clipPath>
</defs>
</svg>
