<svg width="27" height="27" viewBox="0 0 27 27" fill="none" xmlns="http://www.w3.org/2000/svg">
<path d="M13.5 2.25C7.29 2.25 2.25 7.29 2.25 13.5C2.25 19.71 7.29 24.75 13.5 24.75C19.71 24.75 24.75 19.71 24.75 13.5C24.75 7.29 19.71 2.25 13.5 2.25ZM14.5238 20.4187C14.4451 20.4958 14.3456 20.5482 14.2375 20.5692C14.1295 20.5903 14.0176 20.5792 13.9158 20.5372C13.814 20.4953 13.7267 20.4244 13.6648 20.3334C13.6029 20.2423 13.569 20.1351 13.5675 20.025V19.125H13.5C12.06 19.125 10.62 18.5737 9.5175 17.4825C8.75366 16.7168 8.2265 15.7473 7.99907 14.6899C7.77163 13.6326 7.85354 12.5321 8.235 11.52C8.44875 10.9462 9.2025 10.8 9.63 11.2387C9.8775 11.4862 9.93375 11.8463 9.82125 12.1613C9.30375 13.5563 9.59625 15.1762 10.7212 16.3012C11.5087 17.0887 12.5437 17.46 13.5787 17.4375V16.38C13.5787 15.8738 14.1862 15.6263 14.535 15.9862L16.3575 17.8088C16.5825 18.0337 16.5825 18.3825 16.3575 18.6075L14.5238 20.4187ZM17.37 15.7725C17.2537 15.6528 17.1739 15.5025 17.1401 15.3391C17.1062 15.1757 17.1196 15.006 17.1788 14.85C17.6963 13.455 17.4038 11.835 16.2788 10.71C15.4913 9.9225 14.4562 9.54 13.4325 9.5625V10.62C13.4325 11.1262 12.825 11.3737 12.4762 11.0138L10.6425 9.2025C10.4175 8.9775 10.4175 8.62875 10.6425 8.40375L12.465 6.58125C12.5436 6.50416 12.6431 6.45185 12.7512 6.43079C12.8593 6.40973 12.9712 6.42085 13.073 6.46277C13.1748 6.50469 13.2621 6.57557 13.324 6.66663C13.3859 6.75768 13.4197 6.8649 13.4213 6.975V7.88625C14.8837 7.86375 16.3575 8.3925 17.4712 9.5175C18.2351 10.2832 18.7622 11.2527 18.9897 12.3101C19.2171 13.3674 19.1352 14.4679 18.7537 15.48C18.54 16.065 17.7975 16.2113 17.37 15.7725Z" fill="#89FBA9"/>
</svg>
