<svg width="12" height="12" viewBox="0 0 12 12" fill="none" xmlns="http://www.w3.org/2000/svg">
<g clip-path="url(#clip0_240_380)">
<path d="M12 10.6667C12 11.0203 11.8595 11.3594 11.6095 11.6095C11.3594 11.8595 11.0203 12 10.6667 12H1.33333C0.979711 12 0.640573 11.8595 0.390524 11.6095C0.140476 11.3594 0 11.0203 0 10.6667V1.33333C0 0.979711 0.140476 0.640573 0.390524 0.390524C0.640573 0.140476 0.979711 0 1.33333 0L10.6667 0C11.0203 0 11.3594 0.140476 11.6095 0.390524C11.8595 0.640573 12 0.979711 12 1.33333V10.6667Z" fill="#226699"/>
<path d="M4.99999 10.1667C3.43766 10.1667 2.16666 8.89567 2.16666 7.33333C2.16666 5.771 3.43766 4.5 4.99999 4.5C6.56232 4.5 7.83332 5.771 7.83332 7.33333C7.83332 8.89567 6.56232 10.1667 4.99999 10.1667ZM4.99999 5.5C3.98932 5.5 3.16666 6.32267 3.16666 7.33333C3.16666 8.344 3.98932 9.16667 4.99999 9.16667C6.01066 9.16667 6.83332 8.344 6.83332 7.33333C6.83332 6.32267 6.01066 5.5 4.99999 5.5Z" fill="white"/>
<path d="M9.49999 2.33337H6.51032C6.37771 2.33337 6.25054 2.38605 6.15677 2.47982C6.063 2.57359 6.01032 2.70077 6.01032 2.83337C6.01032 2.96598 6.063 3.09316 6.15677 3.18693C6.25054 3.2807 6.37771 3.33337 6.51032 3.33337H8.29299L5.95966 5.62637L6.66666 6.33337L8.99999 4.04037V5.83337C8.99999 5.96598 9.05267 6.09316 9.14644 6.18693C9.2402 6.2807 9.36738 6.33337 9.49999 6.33337C9.6326 6.33337 9.75977 6.2807 9.85354 6.18693C9.94731 6.09316 9.99999 5.96598 9.99999 5.83337V2.83337C9.99999 2.70077 9.94731 2.57359 9.85354 2.47982C9.75977 2.38605 9.6326 2.33337 9.49999 2.33337Z" fill="white"/>
</g>
<defs>
<clipPath id="clip0_240_380">
<rect width="12" height="12" fill="white"/>
</clipPath>
</defs>
</svg>
