<svg width="23" height="23" viewBox="0 0 23 23" fill="none" xmlns="http://www.w3.org/2000/svg">
<path d="M11.5 0C5.152 0 0 5.152 0 11.5C0 17.848 5.152 23 11.5 23C17.848 23 23 17.848 23 11.5C23 5.152 17.848 0 11.5 0ZM12.5465 18.5725C12.4661 18.6513 12.3644 18.7048 12.2539 18.7263C12.1435 18.7478 12.0291 18.7365 11.925 18.6936C11.8209 18.6508 11.7317 18.5783 11.6684 18.4852C11.6052 18.3921 11.5706 18.2825 11.569 18.17V17.25H11.5C10.028 17.25 8.556 16.6865 7.429 15.571C6.64818 14.7883 6.10931 13.7972 5.87682 12.7164C5.64434 11.6355 5.72806 10.5105 6.118 9.476C6.3365 8.8895 7.107 8.74 7.544 9.1885C7.797 9.4415 7.8545 9.8095 7.7395 10.1315C7.2105 11.5575 7.5095 13.2135 8.6595 14.3635C9.4645 15.1685 10.5225 15.548 11.5805 15.525V14.444C11.5805 13.9265 12.2015 13.6735 12.558 14.0415L14.421 15.9045C14.651 16.1345 14.651 16.491 14.421 16.721L12.5465 18.5725ZM15.456 13.823C15.3371 13.7007 15.2556 13.547 15.221 13.38C15.1863 13.2129 15.2001 13.0395 15.2605 12.88C15.7895 11.454 15.4905 9.798 14.3405 8.648C13.5355 7.843 12.4775 7.452 11.431 7.475V8.556C11.431 9.0735 10.81 9.3265 10.4535 8.9585L8.579 7.107C8.349 6.877 8.349 6.5205 8.579 6.2905L10.442 4.4275C10.5224 4.3487 10.6241 4.29522 10.7346 4.27369C10.845 4.25216 10.9594 4.26353 11.0635 4.30639C11.1676 4.34924 11.2568 4.4217 11.3201 4.51478C11.3833 4.60785 11.4179 4.71746 11.4195 4.83V5.7615C12.9145 5.7385 14.421 6.279 15.5595 7.429C16.3403 8.21172 16.8792 9.20276 17.1117 10.2836C17.3442 11.3645 17.2604 12.4895 16.8705 13.524C16.652 14.122 15.893 14.2715 15.456 13.823Z" fill="#89FBA9"/>
</svg>
