<svg width="16" height="18" viewBox="0 0 16 18" fill="none" xmlns="http://www.w3.org/2000/svg">
<path d="M3.2 0C4.82743 0 5.64114 1.944 4.49829 3.078C3.34629 4.203 1.37143 3.402 1.37143 1.8C1.37143 1.32261 1.56408 0.864773 1.907 0.527208C2.24993 0.189642 2.71503 0 3.2 0ZM1.82857 4.5H4.57143C5.0564 4.5 5.5215 4.68964 5.86442 5.02721C6.20735 5.36477 6.4 5.82261 6.4 6.3V11.25H5.02857V18H1.37143V11.25H0V6.3C0 5.82261 0.192652 5.36477 0.535576 5.02721C0.8785 4.68964 1.3436 4.5 1.82857 4.5ZM16 5.4H10.5143V7.2H16M16 8.1H13.2571V9.9H16M16 0H10.5143V1.8H16M16 2.7H13.2571V4.5H16M16 10.8H10.5143V12.6H16M16 16.2H10.5143V18H16M16 13.5H13.2571V15.3H16" fill="#4B4B4B"/>
</svg>
