<svg width="64" height="64" viewBox="0 0 64 64" fill="none" xmlns="http://www.w3.org/2000/svg">
<path d="M20.3636 58.1818H8.72726C7.95573 58.1818 7.21579 57.8753 6.67023 57.3297C6.12467 56.7841 5.81818 56.0442 5.81818 55.2727V43.6363C5.81818 42.8648 5.51168 42.1248 4.96612 41.5793C4.42056 41.0337 3.68063 40.7272 2.90909 40.7272C2.13755 40.7272 1.39761 41.0337 0.852052 41.5793C0.306492 42.1248 0 42.8648 0 43.6363V55.2727C0 57.5873 0.919477 59.8071 2.55616 61.4438C4.19284 63.0805 6.41265 63.9999 8.72726 63.9999H20.3636C21.1352 63.9999 21.8751 63.6934 22.4207 63.1479C22.9662 62.6023 23.2727 61.8624 23.2727 61.0908C23.2727 60.3193 22.9662 59.5794 22.4207 59.0338C21.8751 58.4882 21.1352 58.1818 20.3636 58.1818ZM61.0908 40.7272C60.3193 40.7272 59.5794 41.0337 59.0338 41.5793C58.4882 42.1248 58.1818 42.8648 58.1818 43.6363V55.2727C58.1818 56.0442 57.8753 56.7841 57.3297 57.3297C56.7841 57.8753 56.0442 58.1818 55.2727 58.1818H43.6363C42.8648 58.1818 42.1248 58.4882 41.5793 59.0338C41.0337 59.5794 40.7272 60.3193 40.7272 61.0908C40.7272 61.8624 41.0337 62.6023 41.5793 63.1479C42.1248 63.6934 42.8648 63.9999 43.6363 63.9999H55.2727C57.5873 63.9999 59.8071 63.0805 61.4438 61.4438C63.0805 59.8071 63.9999 57.5873 63.9999 55.2727V43.6363C63.9999 42.8648 63.6934 42.1248 63.1479 41.5793C62.6023 41.0337 61.8624 40.7272 61.0908 40.7272ZM55.2727 0H43.6363C42.8648 0 42.1248 0.306492 41.5793 0.852052C41.0337 1.39761 40.7272 2.13755 40.7272 2.90909C40.7272 3.68063 41.0337 4.42056 41.5793 4.96612C42.1248 5.51168 42.8648 5.81818 43.6363 5.81818H55.2727C56.0442 5.81818 56.7841 6.12467 57.3297 6.67023C57.8753 7.21579 58.1818 7.95573 58.1818 8.72726V20.3636C58.1818 21.1352 58.4882 21.8751 59.0338 22.4207C59.5794 22.9662 60.3193 23.2727 61.0908 23.2727C61.8624 23.2727 62.6023 22.9662 63.1479 22.4207C63.6934 21.8751 63.9999 21.1352 63.9999 20.3636V8.72726C63.9999 6.41265 63.0805 4.19284 61.4438 2.55616C59.8071 0.919477 57.5873 0 55.2727 0ZM2.90909 23.2727C3.68063 23.2727 4.42056 22.9662 4.96612 22.4207C5.51168 21.8751 5.81818 21.1352 5.81818 20.3636V8.72726C5.81818 7.95573 6.12467 7.21579 6.67023 6.67023C7.21579 6.12467 7.95573 5.81818 8.72726 5.81818H20.3636C21.1352 5.81818 21.8751 5.51168 22.4207 4.96612C22.9662 4.42056 23.2727 3.68063 23.2727 2.90909C23.2727 2.13755 22.9662 1.39761 22.4207 0.852052C21.8751 0.306492 21.1352 0 20.3636 0H8.72726C6.41265 0 4.19284 0.919477 2.55616 2.55616C0.919477 4.19284 0 6.41265 0 8.72726V20.3636C0 21.1352 0.306492 21.8751 0.852052 22.4207C1.39761 22.9662 2.13755 23.2727 2.90909 23.2727ZM26.1818 11.6364H14.5454C13.7739 11.6364 13.034 11.9428 12.4884 12.4884C11.9428 13.034 11.6364 13.7739 11.6364 14.5454V26.1818C11.6364 26.9533 11.9428 27.6933 12.4884 28.2388C13.034 28.7844 13.7739 29.0909 14.5454 29.0909H26.1818C26.9533 29.0909 27.6933 28.7844 28.2388 28.2388C28.7844 27.6933 29.0909 26.9533 29.0909 26.1818V14.5454C29.0909 13.7739 28.7844 13.034 28.2388 12.4884C27.6933 11.9428 26.9533 11.6364 26.1818 11.6364ZM23.2727 23.2727H17.4545V17.4545H23.2727V23.2727ZM37.8181 29.0909H49.4545C50.226 29.0909 50.966 28.7844 51.5115 28.2388C52.0571 27.6933 52.3636 26.9533 52.3636 26.1818V14.5454C52.3636 13.7739 52.0571 13.034 51.5115 12.4884C50.966 11.9428 50.226 11.6364 49.4545 11.6364H37.8181C37.0466 11.6364 36.3067 11.9428 35.7611 12.4884C35.2155 13.034 34.9091 13.7739 34.9091 14.5454V26.1818C34.9091 26.9533 35.2155 27.6933 35.7611 28.2388C36.3067 28.7844 37.0466 29.0909 37.8181 29.0909ZM40.7272 17.4545H46.5454V23.2727H40.7272V17.4545ZM26.1818 34.9091H14.5454C13.7739 34.9091 13.034 35.2155 12.4884 35.7611C11.9428 36.3067 11.6364 37.0466 11.6364 37.8181V49.4545C11.6364 50.226 11.9428 50.966 12.4884 51.5115C13.034 52.0571 13.7739 52.3636 14.5454 52.3636H26.1818C26.9533 52.3636 27.6933 52.0571 28.2388 51.5115C28.7844 50.966 29.0909 50.226 29.0909 49.4545V37.8181C29.0909 37.0466 28.7844 36.3067 28.2388 35.7611C27.6933 35.2155 26.9533 34.9091 26.1818 34.9091ZM23.2727 46.5454H17.4545V40.7272H23.2727V46.5454ZM37.8181 43.6363C38.5897 43.6363 39.3296 43.3298 39.8752 42.7843C40.4207 42.2387 40.7272 41.4988 40.7272 40.7272C41.4988 40.7272 42.2387 40.4207 42.7843 39.8752C43.3298 39.3296 43.6363 38.5897 43.6363 37.8181C43.6363 37.0466 43.3298 36.3067 42.7843 35.7611C42.2387 35.2155 41.4988 34.9091 40.7272 34.9091H37.8181C37.0466 34.9091 36.3067 35.2155 35.7611 35.7611C35.2155 36.3067 34.9091 37.0466 34.9091 37.8181V40.7272C34.9091 41.4988 35.2155 42.2387 35.7611 42.7843C36.3067 43.3298 37.0466 43.6363 37.8181 43.6363ZM49.4545 34.9091C48.683 34.9091 47.943 35.2155 47.3975 35.7611C46.8519 36.3067 46.5454 37.0466 46.5454 37.8181V46.5454C45.7739 46.5454 45.0339 46.8519 44.4884 47.3975C43.9428 47.943 43.6363 48.683 43.6363 49.4545C43.6363 50.226 43.9428 50.966 44.4884 51.5115C45.0339 52.0571 45.7739 52.3636 46.5454 52.3636H49.4545C50.226 52.3636 50.966 52.0571 51.5115 51.5115C52.0571 50.966 52.3636 50.226 52.3636 49.4545V37.8181C52.3636 37.0466 52.0571 36.3067 51.5115 35.7611C50.966 35.2155 50.226 34.9091 49.4545 34.9091ZM37.8181 46.5454C37.2428 46.5454 36.6803 46.716 36.2019 47.0357C35.7235 47.3553 35.3507 47.8097 35.1305 48.3412C34.9103 48.8728 34.8527 49.4577 34.965 50.022C35.0772 50.5863 35.3543 51.1047 35.7611 51.5115C36.1679 51.9184 36.6863 52.1954 37.2506 52.3077C37.8149 52.4199 38.3998 52.3623 38.9314 52.1421C39.463 51.922 39.9173 51.5491 40.237 51.0707C40.5566 50.5923 40.7272 50.0299 40.7272 49.4545C40.7272 48.683 40.4207 47.943 39.8752 47.3975C39.3296 46.8519 38.5897 46.5454 37.8181 46.5454Z" fill="black"/>
</svg>
