<svg width="25" height="25" viewBox="0 0 25 25" fill="none" xmlns="http://www.w3.org/2000/svg">
<g clip-path="url(#clip0_235_82)">
<path d="M1.5625 8.78906V2.73438C1.5625 2.08496 2.08496 1.5625 2.73438 1.5625H8.78906C9.11133 1.5625 9.375 1.82617 9.375 2.14844V4.10156C9.375 4.42383 9.11133 4.6875 8.78906 4.6875H4.6875V8.78906C4.6875 9.11133 4.42383 9.375 4.10156 9.375H2.14844C1.82617 9.375 1.5625 9.11133 1.5625 8.78906ZM15.625 2.14844V4.10156C15.625 4.42383 15.8887 4.6875 16.2109 4.6875H20.3125V8.78906C20.3125 9.11133 20.5762 9.375 20.8984 9.375H22.8516C23.1738 9.375 23.4375 9.11133 23.4375 8.78906V2.73438C23.4375 2.08496 22.915 1.5625 22.2656 1.5625H16.2109C15.8887 1.5625 15.625 1.82617 15.625 2.14844ZM22.8516 15.625H20.8984C20.5762 15.625 20.3125 15.8887 20.3125 16.2109V20.3125H16.2109C15.8887 20.3125 15.625 20.5762 15.625 20.8984V22.8516C15.625 23.1738 15.8887 23.4375 16.2109 23.4375H22.2656C22.915 23.4375 23.4375 22.915 23.4375 22.2656V16.2109C23.4375 15.8887 23.1738 15.625 22.8516 15.625ZM9.375 22.8516V20.8984C9.375 20.5762 9.11133 20.3125 8.78906 20.3125H4.6875V16.2109C4.6875 15.8887 4.42383 15.625 4.10156 15.625H2.14844C1.82617 15.625 1.5625 15.8887 1.5625 16.2109V22.2656C1.5625 22.915 2.08496 23.4375 2.73438 23.4375H8.78906C9.11133 23.4375 9.375 23.1738 9.375 22.8516Z" fill="black"/>
</g>
<defs>
<clipPath id="clip0_235_82">
<rect width="25" height="25" fill="white"/>
</clipPath>
</defs>
</svg>
